<?xml version="1.0" standalone="no"?>
<!DOCTYPE svg PUBLIC "-//W3C//DTD SVG 20010904//EN"
 "http://www.w3.org/TR/2001/REC-SVG-20010904/DTD/svg10.dtd">
<svg version="1.0" xmlns="http://www.w3.org/2000/svg"
 width="300.000000pt" height="300.000000pt" viewBox="0 0 300.000000 300.000000"
 preserveAspectRatio="xMidYMid meet">
<metadata>
Created by potrace 1.11, written by Peter Selinger 2001-2013
</metadata>
<g transform="translate(0.000000,300.000000) scale(0.100000,-0.100000)"
fill="#000000" stroke="none">
<path d="M1546 2900 c-127 -55 -232 -98 -234 -95 -2 2 -9 -1 -16 -6 -6 -5 -89
-48 -184 -94 l-174 -85 -227 0 c-126 0 -249 -3 -275 -6 l-46 -7 0 -88 c0 -49
-3 -89 -7 -89 -5 0 -91 40 -193 89 l-185 88 -3 -675 c-1 -371 -1 -677 1 -678
2 -2 89 -30 193 -62 l189 -58 3 -332 c1 -220 -1 -332 -8 -332 -5 0 -87 31
-181 70 -95 38 -178 70 -185 70 -12 0 -14 -54 -14 -305 l0 -305 1060 0 1060 0
5 23 c3 12 -5 98 -18 190 -13 95 -19 171 -14 174 5 3 124 4 265 2 l257 -4 -3
490 c-1 333 1 484 8 470 5 -11 32 -112 60 -223 48 -196 55 -215 181 -495 72
-161 133 -294 135 -296 2 -2 4 487 4 1087 l0 1092 -112 0 c-62 0 -150 3 -195
7 l-83 6 0 42 0 42 -227 6 c-124 4 -228 8 -229 10 -3 3 -64 354 -64 370 0 4
-71 7 -157 7 l-158 0 -229 -100z m569 -498 c111 -50 173 -115 215 -227 30 -79
33 -231 6 -320 -82 -273 -259 -472 -553 -619 -75 -37 -338 -129 -407 -142 -38
-7 -38 -7 -34 -48 7 -55 26 -94 61 -120 23 -17 42 -21 100 -20 59 1 92 9 180
43 118 45 147 49 172 24 37 -36 -14 -169 -95 -250 -103 -103 -225 -146 -410
-147 -126 -1 -126 -1 -202 36 -142 71 -268 248 -299 422 -12 64 -17 72 -69
122 -67 64 -130 166 -130 211 0 46 26 57 144 57 l99 1 18 103 c22 127 40 183
94 292 129 257 380 463 691 565 118 39 149 44 264 41 84 -1 115 -6 155 -24z
m-1252 -2071 c4 -30 6 -56 4 -57 -4 -4 -267 103 -276 111 -3 3 56 4 129 3
l135 -3 8 -54z"/>
<path d="M1677 1936 c-137 -49 -290 -226 -323 -372 -9 -41 -14 -77 -11 -80 9
-10 124 42 204 92 92 57 211 172 242 231 54 108 1 169 -112 129z"/>
<path d="M2610 110 l-375 -108 383 -1 382 -1 0 110 c0 61 -3 110 -7 109 -5 0
-177 -50 -383 -109z"/>
</g>
</svg>
