<?xml version="1.0" standalone="no"?>
<!DOCTYPE svg PUBLIC "-//W3C//DTD SVG 20010904//EN"
 "http://www.w3.org/TR/2001/REC-SVG-20010904/DTD/svg10.dtd">
<svg version="1.0" xmlns="http://www.w3.org/2000/svg"
 width="819.000000pt" height="819.000000pt" viewBox="0 0 819.000000 819.000000"
 preserveAspectRatio="xMidYMid meet">
<metadata>
Created by potrace 1.11, written by Peter Selinger 2001-2013
</metadata>
<g transform="translate(0.000000,819.000000) scale(0.100000,-0.100000)"
fill="#000000" stroke="none">
<path d="M3315 8123 c-71 -16 -243 -55 -260 -58 -32 -7 -273 -81 -354 -110
-188 -65 -466 -195 -651 -302 -109 -64 -316 -199 -323 -210 -3 -4 20 -9 51
-11 101 -5 217 -45 241 -85 11 -16 13 -159 13 -704 0 -378 4 -685 9 -688 4 -3
25 3 46 14 41 21 153 59 193 66 14 3 73 18 130 35 l105 30 1788 0 1787 0 1 23
c0 12 0 285 0 607 -1 450 2 591 12 610 10 20 109 81 126 78 4 -1 29 2 56 7 28
5 67 9 88 9 l38 0 -28 22 c-33 26 -256 169 -328 209 -370 209 -776 361 -1182
444 -98 20 -129 21 -820 20 -395 -1 -727 -3 -738 -6z"/>
<path d="M1233 7024 c-194 -195 -222 -225 -324 -354 -92 -117 -160 -212 -223
-310 -27 -41 -59 -91 -71 -110 -120 -184 -308 -593 -385 -835 -24 -75 -69
-230 -75 -255 -17 -73 -65 -303 -69 -335 -4 -23 -8 -50 -10 -60 -2 -11 -7 -45
-10 -76 -4 -31 -8 -65 -10 -75 -27 -140 -27 -738 -1 -894 2 -14 7 -50 10 -80
6 -59 6 -61 29 -190 23 -126 29 -157 61 -290 41 -172 141 -456 230 -655 56
-125 137 -279 223 -425 50 -84 57 -95 62 -100 3 -3 32 -45 65 -95 33 -49 65
-97 71 -105 59 -76 227 -283 250 -307 181 -191 343 -347 351 -339 7 7 7 6045
0 6052 -3 4 -82 -70 -174 -162z"/>
<path d="M6719 7189 c-6 -17 -2 -6059 3 -6059 12 0 313 303 393 395 79 92 262
332 283 372 7 12 18 27 25 35 46 48 213 350 315 569 106 227 236 629 276 849
2 14 11 63 20 110 18 102 23 136 32 215 3 33 8 71 10 85 21 136 21 665 0 790
-3 14 -7 57 -11 95 -6 66 -41 282 -50 315 -3 8 -7 33 -11 54 -3 21 -24 105
-45 185 -122 446 -292 819 -552 1211 -57 86 -176 249 -197 270 -3 3 -27 32
-55 65 -78 94 -113 132 -220 241 -110 111 -214 209 -216 203z"/>
<path d="M2647 5364 c-1 -1 -18 -4 -37 -7 -151 -24 -265 -72 -356 -151 -53
-45 -70 -83 -87 -187 -19 -116 -17 -130 33 -243 38 -86 50 -103 94 -136 64
-47 91 -61 191 -95 l80 -28 1465 0 c1533 1 1531 1 1705 -43 80 -20 262 -91
318 -124 l37 -22 1 169 c0 223 0 766 0 823 l-1 45 -1721 0 c-946 0 -1721 -1
-1722 -1z"/>
<path d="M2032 3310 l0 -610 1749 0 1750 0 77 30 c139 54 251 140 297 231 29
56 34 80 41 184 3 44 10 94 15 111 6 20 6 41 -1 58 -5 15 -12 39 -15 54 -2 15
-7 42 -10 61 -11 61 -33 98 -104 173 -79 83 -132 116 -241 148 l-75 23 -1495
1 -1495 2 -110 23 c-112 24 -251 68 -317 102 -71 36 -66 83 -66 -591z"/>
<path d="M6045 2099 c-65 -32 -242 -87 -350 -108 -55 -11 -113 -24 -130 -28
-16 -4 -818 -10 -1781 -13 l-1751 -5 -1 -594 0 -593 -26 -26 -25 -26 67 -39
c69 -41 299 -158 387 -197 254 -114 650 -237 885 -274 19 -3 46 -8 60 -10 29
-5 149 -23 202 -31 34 -4 72 -8 243 -20 83 -6 396 -6 475 0 36 3 97 7 135 10
67 5 198 21 242 29 12 3 43 8 70 11 26 4 64 11 83 15 19 5 49 12 65 14 202 36
515 136 775 247 125 53 443 219 468 243 3 3 -6 14 -19 25 l-24 19 -2 682 c-1
375 -3 683 -5 685 -2 2 -21 -6 -43 -16z"/>
</g>
</svg>
